<svg id="Layer_1" height="512" viewBox="0 0 512 512" width="512" xmlns="http://www.w3.org/2000/svg" data-name="Layer 1"><path d="m368.929 447.707c-8.758-5.965-17.045-16.411-22.737-28.661-4.34-9.341-6.731-18.932-6.731-27.008v-86.372l85.449-41.808-25.183-12.358-90.266 44.165v86.372c0 8.076 2.391 17.667 6.731 27.008 5.692 12.25 13.979 22.7 22.737 28.661l60.8 41.426 7.662-5.22z" fill="#d4e1f4"/><path d="m13 364.29 192.539 111.163a6 6 0 0 0 6 0l102.069-58.93-6-10.392-93.069 53.733v-208.488l180.539-104.235v97.679h12v-108.051a5.973 5.973 0 0 0 -.814-2.993l-.01-.019c-.1-.168-.209-.326-.323-.484-.046-.064-.087-.131-.135-.193-.094-.12-.2-.23-.3-.343-.08-.088-.157-.178-.242-.262s-.2-.176-.3-.262-.207-.18-.318-.263-.21-.143-.317-.212c-.088-.057-.169-.122-.26-.175l-67.032-38.709q-.1-.058-.2-.111l-125.288-72.333a6 6 0 0 0 -6 0l-192.43 111.1a6 6 0 0 0 -3.109 5.259v222.325a6 6 0 0 0 3 5.196zm9-217.149 64.417 37.191v137.486a6 6 0 0 0 8.29 5.546l19.349-7.991 22.59 25.664a6 6 0 0 0 10.5-3.965v-121.672l55.389 31.979v208.485l-180.535-104.234zm82.422 33.73 180.522-104.225 37.079 21.407-180.523 104.225zm30.728 31.6v112.705l-14.92-16.949a6.006 6.006 0 0 0 -6.793-1.581l-15.02 6.2v-121.586zm253.911-75.71-180.522 104.223-55.039-31.778 180.528-104.227zm-180.522-104.226 64.405 37.183-180.523 104.224-64.4-37.183z" fill="#0635c9"/><g fill="#1ae5be"><path d="m498.643 286.67-96.27-47.237a6 6 0 0 0 -5.279 0l-96.27 47.1a6 6 0 0 0 -3.363 5.39v90.116c0 9.928 2.714 21.016 7.849 32.065 6.577 14.156 16.369 26.375 26.863 33.521l64.18 43.728a5.995 5.995 0 0 0 6.755 0l64.18-43.727c19.465-13.259 34.712-42.068 34.712-65.588v-89.981a6 6 0 0 0 -3.357-5.387zm-8.643 95.368c0 19.3-13.494 44.789-29.468 55.67l-60.8 41.425-60.8-41.426c-8.758-5.965-17.045-16.411-22.737-28.661-4.34-9.341-6.731-18.932-6.731-27.008v-86.372l90.263-44.166 90.273 44.3z"/><path d="m370.343 358.993a6 6 0 1 0 -8.379 8.59l23.97 23.378a6 6 0 0 0 8.378 0l43.188-42.118a6 6 0 1 0 -8.379-8.59l-38.994 38.032z"/></g></svg>